HIERARCHY
ROOT Hips
{
    OFFSET 0.000000 0.000000 0.000000
    CHANNELS 6 Xposition Yposition Zposition Zrotation Xrotation Yrotation
    JOINT Spine
    {
        OFFSET -0.000000 14.517291 0.000000
        CHANNELS 3 Zrotation Xrotation Yrotation
        JOINT Spine1
        {
            OFFSET -0.000000 37.558300 0.000000
            CHANNELS 3 Zrotation Xrotation Yrotation
            JOINT Neck
            {
                OFFSET -0.000000 37.404057 3.400369
                CHANNELS 3 Zrotation Xrotation Yrotation
                JOINT Head
                {
                    OFFSET -0.000000 24.785618 -3.540803
                    CHANNELS 3 Zrotation Xrotation Yrotation
                    End Site
                    {
                        OFFSET -0.000000 35.408028 0.000000
                    }
                }
            }
            JOINT LeftShoulder
            {
                OFFSET 6.992933 33.973492 -0.192664
                CHANNELS 3 Zrotation Xrotation Yrotation
                JOINT LeftArm
                {
                    OFFSET 21.527611 0.000000 0.000000
                    CHANNELS 3 Zrotation Xrotation Yrotation
                    JOINT LeftForeArm
                    {
                        OFFSET 56.353916 0.000000 0.000000
                        CHANNELS 3 Zrotation Xrotation Yrotation
                        JOINT LeftHand
                        {
                            OFFSET 47.774071 0.000000 0.000000
                            CHANNELS 3 Zrotation Xrotation Yrotation
                            End Site
                            {
                                OFFSET 26.556021 0.000000 0.000000
                            }
                        }
                    }
                }
            }
            JOINT RightShoulder
            {
                OFFSET -7.065357 33.973492 -0.192664
                CHANNELS 3 Zrotation Xrotation Yrotation
                JOINT RightArm
                {
                    OFFSET -21.527611 0.000000 0.000000
                    CHANNELS 3 Zrotation Xrotation Yrotation
                    JOINT RightForeArm
                    {
                        OFFSET -56.353916 0.000000 0.000000
                        CHANNELS 3 Zrotation Xrotation Yrotation
                        JOINT RightHand
                        {
                            OFFSET -47.774071 0.000000 0.000000
                            CHANNELS 3 Zrotation Xrotation Yrotation
                            End Site
                            {
                                OFFSET -26.556021 0.000000 0.000000
                            }
                        }
                    }
                }
            }
        }
    }
    JOINT LeftUpLeg
    {
        OFFSET 17.704014 0.000000 0.000000
        CHANNELS 3 Zrotation Xrotation Yrotation
        JOINT LeftLeg
        {
            OFFSET -0.000000 -81.181816 0.000000
            CHANNELS 3 Zrotation Xrotation Yrotation
            JOINT LeftFoot
            {
                OFFSET -0.000000 -62.821102 0.000000
                CHANNELS 3 Zrotation Xrotation Yrotation
                JOINT LeftToeBase
                {
                    OFFSET -0.000000 -11.507608 26.556021
                    CHANNELS 3 Zrotation Xrotation Yrotation
                    End Site
                    {
                        OFFSET -0.000000 0.000000 7.081605
                    }
                }
            }
        }
    }
    JOINT RightUpLeg
    {
        OFFSET -17.704014 0.000000 0.000000
        CHANNELS 3 Zrotation Xrotation Yrotation
        JOINT RightLeg
        {
            OFFSET -0.000000 -81.181816 0.000000
            CHANNELS 3 Zrotation Xrotation Yrotation
            JOINT RightFoot
            {
                OFFSET -0.000000 -62.821102 0.000000
                CHANNELS 3 Zrotation Xrotation Yrotation
                JOINT RightToeBase
                {
                    OFFSET -0.000000 -11.507608 26.556021
                    CHANNELS 3 Zrotation Xrotation Yrotation
                    End Site
                    {
                        OFFSET -0.000000 0.000000 7.081605
                    }
                }
            }
        }
    }
}
MOTION
Frames:    11
Frame Time:    0.008333
-28.887600    152.461594    -35.554089    3.505151    -1.464060    8.616135    -4.565956    2.910230    -2.868674    0.693211    4.485324    -1.019522    3.282898    -11.970371    -0.643560    4.412096    6.618944    -1.126161    13.704936    0.141518    -27.268330    -34.052197    9.086125    -98.968834    54.573658    -59.348263    -45.067612    -29.255655    -35.381889    -41.546230    1.350852    8.489263    0.594813    29.944481    20.933208    69.086731    -19.303810    -20.824402    51.647617    6.243404    -10.066572    30.899416    2.417559    -28.047094    -19.484011    -11.675477    22.933022    -20.041088    -8.660527    -0.143547    35.687965    0.000000    0.000000    0.000000    -4.329745    6.953292    -6.465563    2.518154    31.795158    -1.033367    0.153220    -33.552254    -6.750303    0.000000    0.000000    0.000000    
-28.895742    152.460999    -35.550766    3.514801    -1.454566    8.608112    -4.574832    2.910650    -2.868345    0.696161    4.478772    -1.019551    3.261036    -11.954531    -0.644146    4.416384    6.591270    -1.119297    13.692869    0.130316    -27.253830    -34.044811    9.090415    -99.000885    54.590008    -59.375965    -45.051582    -29.234407    -35.433468    -41.549492    1.341965    8.494636    0.605658    29.948828    20.914354    69.069405    -19.282606    -20.805910    51.674023    6.233589    -10.055655    30.884205    2.412117    -28.054554    -19.478498    -11.677158    22.932932    -20.030922    -8.665905    -0.141824    35.695011    0.000000    0.000000    0.000000    -4.340411    6.938701    -6.447565    2.529788    31.807108    -1.044194    0.137167    -33.551327    -6.762737    0.000000    0.000000    0.000000    
-28.901205    152.461884    -35.544228    3.526973    -1.449005    8.603776    -4.571624    2.924323    -2.870354    0.673796    4.452463    -1.019328    3.239720    -11.973782    -0.633209    4.446817    6.622334    -1.101585    13.693963    0.119587    -27.248205    -34.030285    9.105486    -99.022308    54.653366    -59.404911    -45.005516    -29.237766    -35.476700    -41.539204    1.352212    8.502234    0.609299    29.938583    20.913162    69.061569    -19.274582    -20.798639    51.673954    6.219336    -10.055326    30.893536    2.402051    -28.055649    -19.481428    -11.672393    22.934362    -20.038483    -8.670757    -0.146163    35.699799    0.000000    0.000000    0.000000    -4.355159    6.931670    -6.425252    2.553103    31.817087    -1.072917    0.128011    -33.562061    -6.765563    0.000000    0.000000    0.000000    
-28.908533    152.460205    -35.537701    3.537254    -1.438897    8.595152    -4.579720    2.925874    -2.866125    0.670502    4.441054    -1.017791    3.238934    -11.964484    -0.625005    4.437481    6.601553    -1.092639    13.694970    0.113473    -27.252831    -34.044380    9.100368    -99.039101    54.605534    -59.435047    -45.067749    -29.218124    -35.524544    -41.523754    1.348316    8.495465    0.619081    29.953363    20.898500    69.037560    -19.250547    -20.774982    51.681824    6.187535    -10.049955    30.883600    2.394828    -28.063055    -19.473440    -11.668553    22.939466    -20.042603    -8.666529    -0.144564    35.698940    0.000000    0.000000    0.000000    -4.362942    6.912828    -6.420766    2.538349    31.843399    -1.052751    0.152730    -33.562485    -6.759139    0.000000    0.000000    0.000000    
-28.915030    152.459396    -35.526459    3.547944    -1.441723    8.591187    -4.585086    2.934245    -2.865588    0.663007    4.440863    -1.017507    3.230573    -11.962458    -0.617247    4.446279    6.585593    -1.081007    13.703284    0.100043    -27.258858    -34.070805    9.093043    -99.043800    54.546482    -59.451393    -45.148327    -29.213724    -35.539928    -41.512360    1.353970    8.494554    0.614863    29.920452    20.904488    69.055267    -19.272240    -20.789486    51.646217    6.185996    -10.063704    30.859045    2.391233    -28.051720    -19.475985    -11.674747    22.930683    -20.033306    -8.660983    -0.142638    35.700836    0.000000    0.000000    0.000000    -4.370392    6.915788    -6.416867    2.540625    31.852335    -1.059862    0.132649    -33.567600    -6.768952    0.000000    0.000000    0.000000    
-28.922028    152.457123    -35.512627    3.557388    -1.443038    8.592519    -4.588660    2.940087    -2.866479    0.656556    4.437017    -1.017633    3.215592    -11.956789    -0.614081    4.466513    6.571247    -1.071413    13.709356    0.098607    -27.278721    -34.095539    9.073349    -99.040535    54.464619    -59.476288    -45.248169    -29.250479    -35.548035    -41.532127    1.352095    8.500915    0.613597    29.901146    20.899450    69.066727    -19.277489    -20.799818    51.610229    6.178753    -10.081071    30.865793    2.384490    -28.044960    -19.493891    -11.679972    22.928425    -20.021584    -8.654193    -0.147020    35.706898    0.000000    0.000000    0.000000    -4.374322    6.917905    -6.420168    2.539353    31.866320    -1.091459    0.165310    -33.573402    -6.735935    0.000000    0.000000    0.000000    
-28.927208    152.454575    -35.501083    3.568552    -1.443100    8.590842    -4.588812    2.948367    -2.871443    0.638048    4.433594    -1.018675    3.248110    -11.978339    -0.591172    4.429252    6.585429    -1.060217    13.725109    0.099822    -27.272057    -34.101364    9.059789    -99.055473    54.445103    -59.482380    -45.289001    -29.294184    -35.525330    -41.555027    1.353619    8.489844    0.616446    29.886768    20.908722    69.077942    -19.285622    -20.816416    51.570259    6.145421    -10.113036    30.847319    2.376440    -28.040007    -19.482134    -11.681067    22.933800    -20.018587    -8.649695    -0.151362    35.699120    0.000000    0.000000    0.000000    -4.385448    6.919525    -6.408581    2.545963    31.877523    -1.064185    0.129064    -33.578533    -6.780772    0.000000    0.000000    0.000000    
-28.933197    152.452942    -35.488979    3.581198    -1.447762    8.598669    -4.582040    2.966131    -2.882818    0.607765    4.420964    -1.021375    3.264538    -11.977497    -0.579911    4.422880    6.578272    -1.052900    13.740067    0.096147    -27.275562    -34.103458    9.051841    -99.052444    54.448689    -59.483612    -45.314507    -29.330908    -35.494511    -41.578407    1.368351    8.498775    0.616817    29.861792    20.898907    69.101402    -19.274963    -20.844263    51.537895    6.141194    -10.155216    30.852814    2.365207    -28.035570    -19.496046    -11.686189    22.947184    -20.026722    -8.649731    -0.171172    35.705788    0.000000    0.000000    0.000000    -4.393257    6.932920    -6.422459    2.538681    31.872723    -1.196951    0.227990    -33.586334    -6.600210    0.000000    0.000000    0.000000    
-28.938793    152.450485    -35.478119    3.588466    -1.440394    8.608127    -4.640170    2.925176    -2.873830    0.690786    4.481946    -1.021867    3.273797    -11.976026    -0.570782    4.372868    6.547328    -1.048835    13.721819    0.078897    -27.330088    -34.149921    9.012561    -99.030121    54.376434    -59.458988    -45.399551    -29.352518    -35.431061    -41.600243    1.338418    8.466363    0.608028    29.811825    20.909843    69.106796    -19.309917    -20.911531    51.482822    6.171946    -10.211421    30.861334    2.358023    -28.042780    -19.504879    -11.696027    22.949860    -20.020338    -8.641395    -0.170213    35.694748    0.000000    0.000000    0.000000    -4.396235    6.928435    -6.446727    2.523427    31.881195    -1.199158    0.253741    -33.587208    -6.570965    0.000000    0.000000    0.000000    
-28.940880    152.449219    -35.463875    3.597395    -1.443601    8.614943    -4.633166    2.937391    -2.883512    0.671475    4.470869    -1.024413    3.288778    -11.963586    -0.559301    4.363574    6.529380    -1.040452    13.725683    0.084121    -27.332346    -34.137669    9.003362    -99.030174    54.421459    -59.442108    -45.377209    -29.375706    -35.380558    -41.628025    1.341117    8.468668    0.614112    29.796564    20.915384    69.110001    -19.327320    -20.956688    51.467472    6.190659    -10.247556    30.878212    2.349261    -28.037506    -19.496071    -11.696152    22.960493    -20.026972    -8.640765    -0.182350    35.696808    0.000000    0.000000    0.000000    -4.402904    6.934617    -6.449881    2.535176    31.890371    -1.209781    0.241808    -33.595860    -6.587512    0.000000    0.000000    0.000000    
-28.947062    152.445847    -35.449581    3.601253    -1.442221    8.622095    -4.570131    2.978286    -2.905963    0.579629    4.408930    -1.027982    3.292462    -11.993872    -0.553386    4.378030    6.577538    -1.036697    13.735920    0.100033    -27.287279    -34.121094    9.022240    -99.045555    54.440144    -59.433247    -45.386635    -29.392164    -35.343433    -41.645195    1.353822    8.493124    0.608310    29.827175    20.914343    69.140030    -19.325657    -20.952015    51.470562    6.175174    -10.247088    30.876862    2.343968    -28.042582    -19.483185    -11.692080    22.981924    -20.044422    -8.622406    -0.183381    35.677635    0.000000    0.000000    0.000000    -4.401807    6.925249    -6.460979    2.519697    31.929691    -1.045799    0.157772    -33.600922    -6.757209    0.000000    0.000000    0.000000    
